<?xml version="1.0" encoding="UTF-8" standalone="no"?>
<!-- Created with Inkscape (http://www.inkscape.org/) -->

<svg
   width="61.010838mm"
   height="61.010834mm"
   viewBox="0 0 61.010837 61.010834"
   version="1.1"
   id="svg5"
   xml:space="preserve"
   xmlns="http://www.w3.org/2000/svg"
   xmlns:svg="http://www.w3.org/2000/svg"><defs
     id="defs2" /><circle
     style="fill:#312f38;fill-opacity:1;stroke:none;stroke-width:0.227762;stroke-dasharray:none;stroke-opacity:1"
     id="path20086"
     cx="30.505417"
     cy="30.505417"
     r="30.505417" /><path
     style="fill:#fff9d9;fill-opacity:1;stroke-width:0.0879744"
     d="m 19.531574,53.85354 c 0.76692,-0.379427 0.769421,-0.362322 -0.407473,-2.786326 -1.673694,-3.447233 -2.092989,-5.28948 -2.217453,-9.742722 -0.05357,-1.916318 0.02321,-4.576088 0.137469,-4.763049 0.04577,-0.07492 0.702759,-0.0558 2.550341,0.07419 2.780425,0.195549 5.24108,0.225819 6.425512,0.0791 2.497532,-0.309493 4.512149,-1.46701 5.617668,-3.227672 l 0.227375,-0.362124 0.751849,0.3844 c 2.144306,1.096329 5.538893,1.27865 9.57563,0.51429 0.37822,-0.07157 0.703009,-0.130213 0.721751,-0.130213 0.128124,0 -0.171461,2.322724 -0.485765,3.766203 -0.171738,0.788727 -0.630803,2.337791 -0.932796,3.147614 -0.146427,0.392655 -0.146388,0.422455 8.74e-4,0.649706 0.165019,0.254668 0.861297,0.615705 1.365206,0.707884 0.538396,0.09853 0.746084,-0.05078 0.945991,-0.679767 0.526242,-1.655819 0.871034,-3.939203 0.947737,-6.276409 l 0.05701,-1.73686 1.626859,-0.420125 c 3.887132,-1.003847 5.78591,-1.857377 6.917691,-3.109622 1.00701,-1.114186 1.321853,-2.39875 1.003661,-4.094933 -0.479554,-2.556285 -2.619472,-5.650454 -6.032641,-10.433198 -0.742045,-1.039801 -1.219594,-1.699945 -1.721215,-1.559106 -0.33458,0.09394 -0.475464,0.942157 -0.559996,1.416689 L 45.89687,16.113474 44.619442,14.85126 C 43.20775,13.456383 42.168896,12.554109 40.714762,11.459943 38.353736,9.6833878 35.864845,8.3838095 34.4586,8.1932758 33.476938,8.0602732 33.499185,8.0204215 33.511981,7.8523319 c 0.008,-0.1044984 0.0016,-0.366742 0.03313,-0.650667 0.05141,-0.4620663 0.068,-0.7153136 -0.178698,-0.9505158 -0.241538,-0.318176 -0.372319,-0.232381 -0.60167,-0.2568103 -2.444314,0.015882 -7.089469,1.5078646 -9.988241,3.433963 -1.081023,0.7182812 -1.8781,1.3667432 -2.801507,2.2791732 l -0.620908,0.613522 0.0085,-0.755301 c 0.0075,-0.669214 -0.01369,-0.77784 -0.186284,-0.952982 -0.297661,-0.302043 -0.675966,-0.240646 -1.654334,0.268492 -2.265491,1.178968 -5.077097,3.945076 -7.070369,6.955967 -0.997946,1.507426 -2.4804894,4.686073 -3.2596503,6.98885 -1.7985768,5.315622 -0.7931961,8.607774 3.1542463,10.3287 0.43455,0.189447 1.14693,0.439622 1.583066,0.555949 0.941612,0.251136 2.671928,0.571747 3.085634,0.571747 0.182133,0 0.313036,0.0511 0.344712,0.13458 0.02808,0.07398 -0.02236,0.760745 -0.112102,1.526046 -0.13188,1.124624 -0.281815,1.84303 -0.280559,4.488569 0.0017,3.540426 0.399379,4.38916 0.931376,6.49573 0.31918,1.263864 1.528408,4.542851 1.972966,5.034665 0.163315,0.18068 0.250638,0.202936 0.67613,0.172342 0.296445,-0.02132 0.683478,-0.13154 0.984148,-0.280299 z m 2.464084,-18.156723 c -0.14435,-0.01432 -1.28603,-0.09258 -2.537065,-0.173889 -1.251036,-0.0814 -2.289356,-0.161131 -2.307377,-0.177295 -0.05755,-0.05162 0.33867,-2.775209 0.610263,-4.194771 1.153525,-6.029285 3.634094,-11.216335 7.140164,-15.208859 0.522488,-0.594975 1.525785,-1.522002 2.320936,-2.16828 0.534683,-0.434565 -0.225626,-0.0838 -1.016641,0.516254 -2.437187,1.849049 -5.155826,5.476178 -7.060703,9.341237 -1.536608,3.117835 -2.704524,6.798128 -3.368904,10.615969 -0.08044,0.462234 -0.17879,0.876559 -0.21856,0.920716 -0.163365,0.18138 -2.931187,-0.342574 -4.16797,-0.789009 C 10.283985,33.979736 9.535499,33.53747 8.8351984,32.869427 7.8326779,31.913101 7.4331293,30.890688 7.4306948,29.275441 c -0.0031,-2.036762 0.9307505,-5.024248 2.7058042,-8.656435 1.461677,-2.990944 4.344083,-6.431072 6.796734,-8.111833 0.577958,-0.396061 1.255435,-0.761351 1.309892,-0.706286 0.01986,0.02006 -0.04301,0.425339 -0.139705,0.900571 -0.237605,1.167736 -0.230212,1.505357 0.03892,1.777506 0.380596,0.38486 0.742064,0.242151 1.331113,-0.525564 1.058231,-1.379187 2.683901,-2.842331 4.240396,-3.816472 1.86122,-1.1648412 4.343447,-2.2258217 6.289749,-2.6884418 0.891041,-0.2117865 2.132471,-0.3749548 2.314721,-0.3042374 0.344982,0.1338699 0.02885,1.734917 -1.011403,5.1223202 -0.8994,2.928712 -1.226597,4.200998 -1.24664,4.847485 -0.01442,0.465348 0.0081,0.53688 0.229466,0.729848 0.135004,0.117664 0.331845,0.213542 0.437425,0.213061 0.241302,-0.001 0.972138,-0.34971 1.366746,-0.651983 0.164962,-0.126357 0.311166,-0.21838 0.324897,-0.204493 0.01373,0.0139 -0.147017,0.720036 -0.357213,1.569241 -0.491936,1.987432 -1.36118,6.152633 -1.36118,6.522447 0,0.362311 0.266339,0.639162 0.614891,0.639162 0.145721,0 0.498914,-0.119429 0.78487,-0.265399 0.285956,-0.145969 0.540728,-0.265399 0.566158,-0.265399 0.12904,0 -0.106622,2.036824 -0.40368,3.488986 -0.197973,0.967798 -0.666359,2.402208 -1.011313,3.097105 -1.098311,2.212499 -2.898785,3.366307 -5.730966,3.672602 -0.762675,0.08244 -2.8467,0.104708 -3.52472,0.03762 z M 35.599579,33.233734 C 34.650333,33.075205 33.580381,32.728953 33.008904,32.395376 L 32.561611,32.134271 32.8617,31.266583 c 0.557182,-1.611068 0.871315,-3.246606 1.078602,-5.615785 0.102523,-1.171832 0.06867,-1.387317 -0.257812,-1.640784 -0.208458,-0.161852 -0.791002,-0.131404 -1.21579,0.06353 -0.34598,0.158769 -0.373551,0.160441 -0.334094,0.02017 0.02365,-0.08411 0.08824,-0.391746 0.143531,-0.683685 0.2391,-1.262527 0.914105,-4.19661 1.314632,-5.71438 0.481893,-1.826103 0.514424,-2.122128 0.261336,-2.37805 -0.414759,-0.419414 -0.833289,-0.29918 -1.894656,0.544267 -0.41,0.325825 -0.565182,0.410334 -0.530297,0.288794 0.02712,-0.09446 0.133922,-0.470383 0.237329,-0.835307 0.103406,-0.364924 0.461296,-1.554864 0.795312,-2.644317 0.334016,-1.089443 0.690797,-2.317458 0.792848,-2.7289102 l 0.185547,-0.748091 0.485119,0.06133 c 2.407028,0.304112 6.649419,3.1216282 10.346081,6.8711752 0.918533,0.931677 1.272879,1.23371 1.543679,1.315754 0.737943,0.223572 1.312026,-0.157798 1.374238,-1.217566 l 0.08562,-0.72732 1.156737,1.731553 c 2.360004,3.532756 3.904327,5.825993 4.623928,8.088866 0.298793,0.939597 0.343886,2.10238 0.107845,2.780956 -0.424739,1.221045 -1.720523,2.155658 -4.151372,2.994257 -1.17626,0.405789 -4.022536,1.176272 -4.090696,1.107341 -0.02192,-0.02215 0.07365,-0.738248 0.02107,-1.41719 -0.130953,-1.691 -0.648153,-4.353675 -0.86001,-5.328819 -0.432447,-1.990484 -1.322188,-4.057954 -2.519338,-5.854132 -1.158519,-1.738219 -2.828201,-3.663408 -4.147862,-4.782609 -0.444163,-0.3767 -0.83878,-0.736796 -0.876929,-0.80022 -0.03815,-0.06342 -0.146411,-0.157014 -0.240585,-0.207983 -0.417068,-0.225705 -0.121691,0.224241 0.682098,1.039037 3.123207,3.166015 5.232583,7.049673 5.746067,10.579336 0.180968,1.243959 0.327761,4.155347 0.295249,5.855772 l -0.02706,1.415466 -0.52491,0.10825 c -2.329201,0.48032 -5.402352,0.671157 -6.867575,0.426457 z"
     id="path8911-9-6" /><path
     style="fill:#ffc700;fill-opacity:1;stroke-width:0.0894406"
     d="m 35.441233,33.540479 c -0.438538,-0.07241 -1.058913,-0.21863 -1.378613,-0.324978 -0.622969,-0.207241 -1.632961,-0.671293 -1.710334,-0.79789 -0.02593,-0.04242 0.143953,-0.370243 0.289481,-0.749199 0.52242,-1.360495 0.938628,-3.487137 1.151083,-5.881446 0.10432,-1.175791 0.07522,-1.33735 -0.287523,-1.594244 -0.265235,-0.187869 -0.65466,-0.172687 -1.12679,0.04388 -0.215182,0.09874 -0.404398,0.166209 -0.420465,0.149961 -0.07977,-0.08066 0.962672,-4.725841 1.571692,-7.003834 0.405762,-1.517696 0.416415,-1.819186 0.07347,-2.076957 -0.340706,-0.256038 -0.660374,-0.14899 -1.562279,0.52315 -0.424661,0.316483 -0.788306,0.559031 -0.808104,0.539011 -0.04371,-0.0442 0.412447,-1.659466 1.118979,-3.962139 0.28838,-0.939879 0.617689,-2.067418 0.731795,-2.5056402 l 0.207463,-0.796762 0.539872,0.06092 c 2.444622,0.276036 6.656085,3.0520392 10.540875,6.9480472 1.400715,1.404767 1.737621,1.499161 2.217304,1.264837 0.365206,-0.178393 0.509114,-0.493789 0.600899,-1.258557 l 0.0786,-0.654888 0.685123,0.906474 c 3.076642,4.070618 6.337191,8.236017 5.591407,11.455111 -0.44374,1.915357 -2.052719,3.019553 -6.73127,4.26204 -1.996828,0.530286 -1.903337,0.511635 -1.903337,0.379855 0,-1.024117 -0.458449,-4.947 -0.765387,-6.549248 -0.66801,-3.487168 -2.439644,-6.620237 -5.50236,-9.730737 -1.299876,-1.320152 -2.515279,-2.479926 -2.515279,-2.357445 0,0.03323 0.379789,0.521603 0.896034,1.03677 2.4838,2.478599 4.297757,5.382652 5.17237,8.124006 0.637957,1.999585 0.828345,3.383109 0.908622,7.362875 l 0.05363,2.657722 -0.613597,0.114864 c -2.68163,0.501991 -5.556474,0.669694 -7.103302,0.414357 z"
     id="path7592-5-7-8" /><path
     style="fill:#0e7d31;fill-opacity:1;stroke-width:0.0894406"
     d="m 21.277828,35.9658 c -0.513646,-0.03542 -1.664349,-0.116358 -2.557116,-0.179907 l -1.623213,-0.115554 4.45e-4,-0.233729 c 0.0017,-0.822539 0.718432,-5.039513 1.192906,-6.881582 1.465064,-5.687714 4.804159,-11.358334 8.199335,-14.190499 1.011497,-0.843761 1.077737,-0.908783 0.613421,-0.602195 -2.498109,1.64954 -5.190475,4.832972 -7.255638,8.578998 -1.916325,3.47604 -2.853723,6.677142 -3.952216,11.460848 l -0.383604,1.670521 -0.581949,-0.01944 C 13.65251,35.410635 11.273096,34.781388 10.070397,34.168002 7.5220148,32.868309 6.6758441,30.554247 7.4888689,27.108164 8.0458141,24.7475 9.822711,20.57975 11.112544,18.608743 c 1.779372,-2.719067 4.340045,-5.348076 6.467407,-6.640006 0.338726,-0.205706 0.745863,-0.439121 0.765938,-0.418819 0.02008,0.02027 -0.09988,0.584651 -0.20186,1.090268 -0.256959,1.274042 -0.06954,1.54641 0.06872,1.781122 0.24245,0.411577 0.482987,0.281396 1.018484,-0.324174 1.040953,-1.17715 2.116616,-2.274367 2.713665,-2.768062 2.188337,-1.8094892 5.192649,-3.2993406 8.093829,-4.013766 1.028434,-0.2532578 2.808985,-0.5609537 2.809918,-0.4102299 0.0022,0.3462206 -0.254143,1.6496447 -1.01168,4.1486389 -0.217431,0.717278 -0.602356,1.988718 -0.855385,2.825415 -0.592988,1.960851 -0.877919,3.381834 -0.739649,3.688705 0.277804,0.616551 0.81115,0.380158 1.727034,-0.240458 0.494074,-0.392749 0.686403,-0.545563 0.699666,-0.532147 0.01326,0.01337 -0.212623,1.210127 -0.448465,2.174383 -0.531778,2.17386 -1.336673,6.059691 -1.336562,6.452597 9e-5,0.360702 0.274733,0.45377 0.60332,0.405841 0.142269,-0.02079 0.867731,-0.41605 1.180418,-0.565624 0.312687,-0.149585 0.246737,-0.201975 0.244728,0.314696 -4.39e-4,0.1129 -0.156727,2.014684 -0.385469,3.164583 -0.946483,4.758023 -2.875414,6.773814 -6.909291,7.220426 -0.939924,0.10407 -2.862573,0.105878 -4.339486,0.0042 z"
     id="path7592-7-7-5" /></svg>
